# xmcd
#
# Track frame offsets: 
#        150
#        19062
#        40560
#        68919
#        87824
#        103961
#        123377
#        145569
#        167133
#        191219
#
# Disc length: 2811 seconds
#
# Revision: 1
# Processed by: cddbd v1.5.2PL0 Copyright (c) Steve Scherf et al.
# Submitted via: ExactAudioCopyFreeDBPlugin 1.0
#
DISCID=830af90a
DTITLE=Various Artist - Funk To The Max Vol.2 [CD2]
DYEAR=2000
DGENRE=Hip-Hop
TTITLE0=Black Market Audio - Feel Real Good
TTITLE1=Enemy Squad Feat. Belita Wood and Steve Boyd - Yeah, C'mon Ya'll
TTITLE1=People
TTITLE2=Seven Eleven - Dirty Frog
TTITLE3=Dodge - Tuned Car Mind
TTITLE4=Slapbak - This First Car Is Fast
TTITLE5=Funk-Kin - Funk Done Gone Hip-Hop
TTITLE6=Menace - Doggie Bone
TTITLE7=76 Sizer - Kaasfunk
TTITLE8=Mo and The Family T. - Telpaddotea
TTITLE9=UJ - Get Some
EXTD=
EXTT0=
EXTT1=
EXTT2=
EXTT3=
EXTT4=
EXTT5=
EXTT6=
EXTT7=
EXTT8=
EXTT9=
PLAYORDER=
